<svg width="23" height="20" viewBox="0 0 23 20" fill="none" xmlns="http://www.w3.org/2000/svg">
<g clip-path="url(#clip0_133_592)">
<path d="M18.125 6.25C18.4688 6.25 18.75 6.53125 18.75 6.875V13.125C18.75 13.4688 18.4688 13.75 18.125 13.75H3.125C2.78125 13.75 2.5 13.4688 2.5 13.125V6.875C2.5 6.53125 2.78125 6.25 3.125 6.25H18.125ZM3.125 3.75C1.39844 3.75 0 5.14844 0 6.875V13.125C0 14.8516 1.39844 16.25 3.125 16.25H18.125C19.8516 16.25 21.25 14.8516 21.25 13.125V12.5C21.9414 12.5 22.5 11.9414 22.5 11.25V8.75C22.5 8.05859 21.9414 7.5 21.25 7.5V6.875C21.25 5.14844 19.8516 3.75 18.125 3.75H3.125ZM17.5 7.5H3.75V12.5H17.5V7.5Z" fill="#F36523"/>
</g>
<defs>
<clipPath id="clip0_133_592">
<path d="M0 0H22.5V20H0V0Z" fill="white"/>
</clipPath>
</defs>
</svg>
