<svg width="20" height="20" viewBox="0 0 20 20" fill="none" xmlns="http://www.w3.org/2000/svg">
<g clip-path="url(#clip0_133_598)">
<path d="M6.11328 17.4883L5.62109 18.6406C4.89062 18.2695 4.21875 17.8125 3.60938 17.2773L4.49609 16.3906C4.98438 16.8164 5.52734 17.1875 6.11328 17.4883ZM1.58594 10.625H0.332031C0.386719 11.4531 0.542969 12.2539 0.789063 13.0117L1.95312 12.5469C1.76172 11.9336 1.63281 11.2891 1.58594 10.625ZM1.58594 9.375C1.64062 8.64062 1.78906 7.92969 2.01953 7.26172L0.867188 6.76953C0.574219 7.58984 0.390625 8.46484 0.332031 9.375H1.58594ZM2.51172 6.11328C2.81641 5.53125 3.18359 4.98828 3.60938 4.49219L2.72266 3.60547C2.1875 4.21484 1.72656 4.88672 1.35938 5.61719L2.51172 6.11328ZM15.5078 16.3906C14.9648 16.8594 14.3594 17.2617 13.707 17.5781L14.1719 18.7422C14.9805 18.3555 15.7266 17.8594 16.3945 17.2734L15.5078 16.3906ZM4.49219 3.60938C5.03516 3.14062 5.64062 2.73828 6.29297 2.42188L5.82812 1.25781C5.01953 1.64453 4.27344 2.14063 3.60938 2.72656L4.49219 3.60938ZM17.4883 13.8867C17.1836 14.4688 16.8164 15.0117 16.3906 15.5078L17.2773 16.3945C17.8125 15.7852 18.2734 15.1094 18.6406 14.3828L17.4883 13.8867ZM18.4141 10.625C18.3594 11.3594 18.2109 12.0703 17.9805 12.7383L19.1328 13.2305C19.4258 12.4062 19.6094 11.5312 19.6641 10.6211H18.4141V10.625ZM12.5469 18.0469C11.9336 18.2422 11.2891 18.3672 10.625 18.4141V19.668C11.4531 19.6133 12.2539 19.457 13.0117 19.2109L12.5469 18.0469ZM9.375 18.4141C8.64062 18.3594 7.92969 18.2109 7.26172 17.9805L6.76953 19.1328C7.59375 19.4258 8.46875 19.6094 9.37891 19.6641V18.4141H9.375ZM18.0469 7.45312C18.2422 8.06641 18.3672 8.71094 18.4141 9.375H19.668C19.6133 8.54688 19.457 7.74609 19.2109 6.98828L18.0469 7.45312ZM3.60938 15.5078C3.14062 14.9648 2.73828 14.3594 2.42188 13.707L1.25781 14.1719C1.64453 14.9805 2.14063 15.7266 2.72656 16.3945L3.60938 15.5078ZM10.625 1.58594C11.3594 1.64062 12.0664 1.78906 12.7383 2.01953L13.2305 0.867188C12.4102 0.574219 11.5352 0.390625 10.625 0.332031V1.58594ZM7.45312 1.95312C8.06641 1.75781 8.71094 1.63281 9.375 1.58594V0.332031C8.54688 0.386719 7.74609 0.542969 6.98828 0.789063L7.45312 1.95312ZM17.2773 3.60547L16.3906 4.49219C16.8594 5.03516 17.2617 5.64062 17.582 6.29297L18.7461 5.82812C18.3594 5.01953 17.8633 4.27344 17.2773 3.60547ZM15.5078 3.60938L16.3945 2.72266C15.7852 2.1875 15.1133 1.72656 14.3828 1.35938L13.8906 2.51172C14.4688 2.81641 15.0156 3.18359 15.5078 3.60938Z" fill="#F36523"/>
<path d="M10 15.3125C10.6041 15.3125 11.0938 14.8228 11.0938 14.2188C11.0938 13.6147 10.6041 13.125 10 13.125C9.39594 13.125 8.90625 13.6147 8.90625 14.2188C8.90625 14.8228 9.39594 15.3125 10 15.3125Z" fill="#F36523"/>
<path d="M10.3007 12.1875H9.67574C9.41793 12.1875 9.20699 11.9766 9.20699 11.7188C9.20699 8.94531 12.2304 9.22266 12.2304 7.50781C12.2304 6.72656 11.5351 5.9375 9.98824 5.9375C8.85153 5.9375 8.25778 6.3125 7.67574 7.05859C7.5234 7.25391 7.24215 7.29297 7.04293 7.15234L6.53121 6.79297C6.31246 6.64062 6.26168 6.33203 6.42965 6.12109C7.25778 5.05859 8.24215 4.375 9.99215 4.375C12.0351 4.375 13.7968 5.53906 13.7968 7.50781C13.7968 10.1484 10.7734 9.98828 10.7734 11.7188C10.7695 11.9766 10.5586 12.1875 10.3007 12.1875Z" fill="#F36523"/>
</g>
<defs>
<clipPath id="clip0_133_598">
<path d="M0 0H20V20H0V0Z" fill="white"/>
</clipPath>
</defs>
</svg>
