<svg width="20" height="20" viewBox="0 0 20 20" fill="none" xmlns="http://www.w3.org/2000/svg">
<g clip-path="url(#clip0_133_586)">
<path d="M5.28125 4.58594L4.26172 7.5H15.7383L14.7188 4.58594C14.543 4.08594 14.0703 3.75 13.5391 3.75H6.46094C5.92969 3.75 5.45703 4.08594 5.28125 4.58594ZM1.54688 7.6875L2.92188 3.76172C3.44922 2.25781 4.86719 1.25 6.46094 1.25H13.5391C15.1328 1.25 16.5508 2.25781 17.0781 3.76172L18.4531 7.6875C19.3594 8.0625 20 8.95703 20 10V15.625V17.5C20 18.1914 19.4414 18.75 18.75 18.75H17.5C16.8086 18.75 16.25 18.1914 16.25 17.5V15.625H3.75V17.5C3.75 18.1914 3.19141 18.75 2.5 18.75H1.25C0.558594 18.75 0 18.1914 0 17.5V15.625V10C0 8.95703 0.640625 8.0625 1.54688 7.6875ZM5 11.25C5 10.9185 4.8683 10.6005 4.63388 10.3661C4.39946 10.1317 4.08152 10 3.75 10C3.41848 10 3.10054 10.1317 2.86612 10.3661C2.6317 10.6005 2.5 10.9185 2.5 11.25C2.5 11.5815 2.6317 11.8995 2.86612 12.1339C3.10054 12.3683 3.41848 12.5 3.75 12.5C4.08152 12.5 4.39946 12.3683 4.63388 12.1339C4.8683 11.8995 5 11.5815 5 11.25ZM16.25 12.5C16.5815 12.5 16.8995 12.3683 17.1339 12.1339C17.3683 11.8995 17.5 11.5815 17.5 11.25C17.5 10.9185 17.3683 10.6005 17.1339 10.3661C16.8995 10.1317 16.5815 10 16.25 10C15.9185 10 15.6005 10.1317 15.3661 10.3661C15.1317 10.6005 15 10.9185 15 11.25C15 11.5815 15.1317 11.8995 15.3661 12.1339C15.6005 12.3683 15.9185 12.5 16.25 12.5Z" fill="#F36523"/>
</g>
<defs>
<clipPath id="clip0_133_586">
<path d="M0 0H20V20H0V0Z" fill="white"/>
</clipPath>
</defs>
</svg>
