<svg width="25" height="20" viewBox="0 0 25 20" fill="none" xmlns="http://www.w3.org/2000/svg">
<g clip-path="url(#clip0_133_595)">
<path d="M12.5 5C13.1914 5 13.75 4.44141 13.75 3.75C13.75 3.05859 13.1914 2.5 12.5 2.5H7.5C6.80859 2.5 6.25 3.05859 6.25 3.75C6.25 4.44141 6.80859 5 7.5 5H8.75V6.25H5.625H3.75H1.875C0.839844 6.25 0 7.08984 0 8.125V10.6562C0 11.3984 0.4375 12.0703 1.11328 12.3711L3.75 13.543V14.375C3.75 15.4102 4.58984 16.25 5.625 16.25H15.7461C16.4648 16.25 17.1445 15.9414 17.6211 15.4023L24.7461 7.33203C25.2266 6.78906 24.7344 5.94922 24.0273 6.10156L17.5 7.5L15.5273 6.51562C15.1797 6.34375 14.7969 6.25 14.4102 6.25H11.25V5H12.5ZM3.75 8.125V11.4883L1.875 10.6562V8.125H3.75Z" fill="#F36523"/>
</g>
<defs>
<clipPath id="clip0_133_595">
<path d="M0 0H25V20H0V0Z" fill="white"/>
</clipPath>
</defs>
</svg>
