<svg width="18" height="14" viewBox="0 0 18 14" fill="none" xmlns="http://www.w3.org/2000/svg">
<g clip-path="url(#clip0_133_241)">
<path d="M1.3125 0C0.587891 0 0 0.587891 0 1.3125V10.0625C0 10.7871 0.587891 11.375 1.3125 11.375H1.75C1.75 12.8242 2.92578 14 4.375 14C5.82422 14 7 12.8242 7 11.375H10.5C10.5 12.8242 11.6758 14 13.125 14C14.5742 14 15.75 12.8242 15.75 11.375H16.625C17.109 11.375 17.5 10.984 17.5 10.5C17.5 10.016 17.109 9.625 16.625 9.625V7.875V7V6.48867C16.625 6.02383 16.4418 5.57812 16.1137 5.25L14 3.13633C13.6719 2.8082 13.2262 2.625 12.7613 2.625H11.375V1.3125C11.375 0.587891 10.7871 0 10.0625 0H1.3125ZM11.375 4.375H12.7613L14.875 6.48867V7H11.375V4.375ZM3.0625 11.375C3.0625 11.0269 3.20078 10.6931 3.44692 10.4469C3.69306 10.2008 4.0269 10.0625 4.375 10.0625C4.7231 10.0625 5.05694 10.2008 5.30308 10.4469C5.54922 10.6931 5.6875 11.0269 5.6875 11.375C5.6875 11.7231 5.54922 12.0569 5.30308 12.3031C5.05694 12.5492 4.7231 12.6875 4.375 12.6875C4.0269 12.6875 3.69306 12.5492 3.44692 12.3031C3.20078 12.0569 3.0625 11.7231 3.0625 11.375ZM13.125 10.0625C13.4731 10.0625 13.8069 10.2008 14.0531 10.4469C14.2992 10.6931 14.4375 11.0269 14.4375 11.375C14.4375 11.7231 14.2992 12.0569 14.0531 12.3031C13.8069 12.5492 13.4731 12.6875 13.125 12.6875C12.7769 12.6875 12.4431 12.5492 12.1969 12.3031C11.9508 12.0569 11.8125 11.7231 11.8125 11.375C11.8125 11.0269 11.9508 10.6931 12.1969 10.4469C12.4431 10.2008 12.7769 10.0625 13.125 10.0625Z" fill="white"/>
</g>
<defs>
<clipPath id="clip0_133_241">
<path d="M0 0H17.5V14H0V0Z" fill="white"/>
</clipPath>
</defs>
</svg>
