<svg width="11" height="14" viewBox="0 0 11 14" fill="none" xmlns="http://www.w3.org/2000/svg">
<path d="M10.5 14H0V0H10.5V14Z" stroke="#E5E7EB"/>
<path d="M9.36795 4.11807C9.70974 3.77627 9.70974 3.22119 9.36795 2.87939C9.02615 2.5376 8.47107 2.5376 8.12927 2.87939L5.24998 5.76143L2.36794 2.88213C2.02615 2.54033 1.47107 2.54033 1.12927 2.88213C0.787476 3.22393 0.787476 3.779 1.12927 4.1208L4.0113 7.0001L1.13201 9.88213C0.79021 10.2239 0.79021 10.779 1.13201 11.1208C1.4738 11.4626 2.02888 11.4626 2.37068 11.1208L5.24998 8.23877L8.13201 11.1181C8.4738 11.4599 9.02888 11.4599 9.37068 11.1181C9.71248 10.7763 9.71248 10.2212 9.37068 9.8794L6.48865 7.0001L9.36795 4.11807Z" fill="#DC2626"/>
</svg>
