<svg width="14" height="18" viewBox="0 0 14 18" fill="none" xmlns="http://www.w3.org/2000/svg">
<g clip-path="url(#clip0_108_67)">
<path d="M2.25 0C1.00898 0 0 1.00898 0 2.25V15.75C0 16.991 1.00898 18 2.25 18H11.25C12.491 18 13.5 16.991 13.5 15.75V5.625H9C8.37773 5.625 7.875 5.12227 7.875 4.5V0H2.25ZM9 0V4.5H13.5L9 0ZM3.9375 9H9.5625C9.87187 9 10.125 9.25313 10.125 9.5625C10.125 9.87187 9.87187 10.125 9.5625 10.125H3.9375C3.62812 10.125 3.375 9.87187 3.375 9.5625C3.375 9.25313 3.62812 9 3.9375 9ZM3.9375 11.25H9.5625C9.87187 11.25 10.125 11.5031 10.125 11.8125C10.125 12.1219 9.87187 12.375 9.5625 12.375H3.9375C3.62812 12.375 3.375 12.1219 3.375 11.8125C3.375 11.5031 3.62812 11.25 3.9375 11.25ZM3.9375 13.5H9.5625C9.87187 13.5 10.125 13.7531 10.125 14.0625C10.125 14.3719 9.87187 14.625 9.5625 14.625H3.9375C3.62812 14.625 3.375 14.3719 3.375 14.0625C3.375 13.7531 3.62812 13.5 3.9375 13.5Z" fill="#F36523"/>
</g>
<defs>
<clipPath id="clip0_108_67">
<path d="M0 0H13.5V18H0V0Z" fill="white"/>
</clipPath>
</defs>
</svg>
