<svg width="16" height="14" viewBox="0 0 16 14" fill="none" xmlns="http://www.w3.org/2000/svg">
<g clip-path="url(#clip0_108_454)">
<path d="M7.87505 0.875C5.66567 0.875 3.89653 1.88125 2.60864 3.07891C1.32896 4.26562 0.473096 5.6875 0.0684082 6.66367C-0.0218262 6.87969 -0.0218262 7.12031 0.0684082 7.33633C0.473096 8.3125 1.32896 9.73438 2.60864 10.9211C3.89653 12.1187 5.66567 13.125 7.87505 13.125C10.0844 13.125 11.8536 12.1187 13.1415 10.9211C14.4211 9.73164 15.277 8.3125 15.6844 7.33633C15.7747 7.12031 15.7747 6.87969 15.6844 6.66367C15.277 5.6875 14.4211 4.26562 13.1415 3.07891C11.8536 1.88125 10.0844 0.875 7.87505 0.875ZM3.93755 7C3.93755 5.95571 4.35239 4.95419 5.09082 4.21577C5.82924 3.47734 6.83076 3.0625 7.87505 3.0625C8.91934 3.0625 9.92086 3.47734 10.6593 4.21577C11.3977 4.95419 11.8125 5.95571 11.8125 7C11.8125 8.04429 11.3977 9.04581 10.6593 9.78423C9.92086 10.5227 8.91934 10.9375 7.87505 10.9375C6.83076 10.9375 5.82924 10.5227 5.09082 9.78423C4.35239 9.04581 3.93755 8.04429 3.93755 7ZM7.87505 5.25C7.87505 6.21523 7.09028 7 6.12505 7C5.93091 7 5.74497 6.96719 5.56997 6.90977C5.41958 6.86055 5.24458 6.95352 5.25005 7.11211C5.25825 7.30078 5.2856 7.48945 5.33755 7.67812C5.71216 9.07812 7.15317 9.90938 8.55317 9.53477C9.95317 9.16016 10.7844 7.71914 10.4098 6.31914C10.1063 5.18438 9.10278 4.42148 7.98716 4.375C7.82856 4.36953 7.7356 4.5418 7.78481 4.69492C7.84224 4.86992 7.87505 5.05586 7.87505 5.25Z" fill="#F36523"/>
</g>
<defs>
<clipPath id="clip0_108_454">
<path d="M0 0H15.75V14H0V0Z" fill="white"/>
</clipPath>
</defs>
</svg>
