<svg width="16" height="18" viewBox="0 0 16 18" fill="none" xmlns="http://www.w3.org/2000/svg">
<g clip-path="url(#clip0_133_126)">
<path d="M0.330566 8.20548C-0.108887 8.64493 -0.108887 9.35861 0.330566 9.79806L5.95557 15.4231C6.39502 15.8625 7.10869 15.8625 7.54814 15.4231C7.9876 14.9836 7.9876 14.2699 7.54814 13.8305L3.83916 10.125H14.6251C15.2474 10.125 15.7501 9.62228 15.7501 9.00001C15.7501 8.37775 15.2474 7.87501 14.6251 7.87501H3.84268L7.54463 4.16954C7.98408 3.73009 7.98408 3.01642 7.54463 2.57697C7.10518 2.13751 6.3915 2.13751 5.95205 2.57697L0.327051 8.20197L0.330566 8.20548Z" fill="#0D2027"/>
</g>
<defs>
<clipPath id="clip0_133_126">
<path d="M0 0H15.75V18H0V0Z" fill="white"/>
</clipPath>
</defs>
</svg>
