<svg width="34" height="34" viewBox="0 0 34 34" fill="none" xmlns="http://www.w3.org/2000/svg">
<path fill-rule="evenodd" clip-rule="evenodd" d="M8.89105 12.2569C9.13459 12.0226 9.4612 11.8946 9.79909 11.901C10.137 11.9073 10.4585 12.0476 10.6931 12.2909L17.0001 18.9855L23.3071 12.2909C23.4217 12.1646 23.5605 12.0625 23.7154 11.9907C23.8702 11.919 24.0378 11.879 24.2084 11.8733C24.3789 11.8675 24.5489 11.8961 24.7082 11.9572C24.8675 12.0183 25.0129 12.1108 25.1358 12.2292C25.2587 12.3475 25.3566 12.4893 25.4237 12.6462C25.4908 12.8031 25.5257 12.9719 25.5264 13.1425C25.5271 13.3131 25.4935 13.4822 25.4277 13.6396C25.3618 13.797 25.265 13.9396 25.1431 14.0589L17.9181 21.7089C17.7991 21.8323 17.6565 21.9305 17.4988 21.9975C17.3411 22.0646 17.1714 22.0991 17.0001 22.0991C16.8287 22.0991 16.659 22.0646 16.5013 21.9975C16.3436 21.9305 16.201 21.8323 16.0821 21.7089L8.85705 14.0589C8.62274 13.8154 8.49471 13.4888 8.50108 13.1509C8.50746 12.813 8.64772 12.4915 8.89105 12.2569Z" fill="black"/>
</svg>
