<svg width="18" height="18" viewBox="0 0 18 18" fill="none" xmlns="http://www.w3.org/2000/svg">
<g clip-path="url(#clip0_108_72)">
<path d="M9 1.6875C4.96055 1.6875 1.6875 4.96055 1.6875 9V10.4062C1.6875 10.8738 1.31133 11.25 0.84375 11.25C0.376172 11.25 0 10.8738 0 10.4062V9C0 4.02891 4.02891 0 9 0C13.9711 0 18 4.02891 18 9V14.066C18 15.7746 16.6148 17.1598 14.9027 17.1598L11.025 17.1562C10.7332 17.659 10.1883 18 9.5625 18H8.4375C7.50586 18 6.75 17.2441 6.75 16.3125C6.75 15.3809 7.50586 14.625 8.4375 14.625H9.5625C10.1883 14.625 10.7332 14.966 11.025 15.4688L14.9062 15.4723C15.6832 15.4723 16.3125 14.843 16.3125 14.066V9C16.3125 4.96055 13.0395 1.6875 9 1.6875ZM5.0625 7.3125H5.625C6.24727 7.3125 6.75 7.81523 6.75 8.4375V12.375C6.75 12.9973 6.24727 13.5 5.625 13.5H5.0625C3.82148 13.5 2.8125 12.491 2.8125 11.25V9.5625C2.8125 8.32148 3.82148 7.3125 5.0625 7.3125ZM12.9375 7.3125C14.1785 7.3125 15.1875 8.32148 15.1875 9.5625V11.25C15.1875 12.491 14.1785 13.5 12.9375 13.5H12.375C11.7527 13.5 11.25 12.9973 11.25 12.375V8.4375C11.25 7.81523 11.7527 7.3125 12.375 7.3125H12.9375Z" fill="#F36523"/>
</g>
<defs>
<clipPath id="clip0_108_72">
<path d="M0 0H18V18H0V0Z" fill="white"/>
</clipPath>
</defs>
</svg>
