<svg width="16" height="16" viewBox="0 0 16 16" fill="none" xmlns="http://www.w3.org/2000/svg">
<g clip-path="url(#clip0_108_445)">
<path d="M7.57498 9.14061C7.74373 8.97186 8.03436 8.97186 8.20311 9.14061L10.6094 11.5469C11.0531 11.9906 11.6437 12.2344 12.2687 12.2344H12.7406L9.70623 15.2687C8.75936 16.1906 7.22186 16.1906 6.27498 15.2687L3.22811 12.225H3.51873C4.14373 12.225 4.73436 11.9812 5.17811 11.5375L7.57498 9.14061ZM8.20311 6.84061C8.00311 7.01248 7.74686 7.01561 7.57498 6.84061L5.17811 4.44373C4.73436 3.97186 4.14373 3.75623 3.51873 3.75623H3.22811L6.27186 0.711234C7.22186 -0.237078 8.75936 -0.237078 9.70623 0.711234L12.7437 3.74686H12.2687C11.6437 3.74686 11.0531 3.99061 10.6094 4.43436L8.20311 6.84061ZM3.51873 4.45936C3.94998 4.45936 4.34686 4.63436 4.67811 4.94061L7.07498 7.33748C7.29998 7.53436 7.59373 7.67498 7.89061 7.67498C8.18436 7.67498 8.47811 7.53436 8.70311 7.33748L11.1094 4.93123C11.4156 4.62811 11.8375 4.45311 12.2687 4.45311H13.4469L15.2687 6.27498C16.2156 7.22186 16.2156 8.75936 15.2687 9.70623L13.4469 11.5281H12.2687C11.8375 11.5281 11.4156 11.3531 11.1094 11.0469L8.70311 8.64061C8.26873 8.20623 7.50936 8.20623 7.07498 8.64373L4.67811 11.0375C4.34686 11.3437 3.94998 11.5187 3.51873 11.5187H2.52436L0.711234 9.70623C-0.237078 8.75936 -0.237078 7.22186 0.711234 6.27498L2.52436 4.45936H3.51873Z" fill="#F36523"/>
</g>
<defs>
<clipPath id="clip0_108_445">
<path d="M0 0H16V16H0V0Z" fill="white"/>
</clipPath>
</defs>
</svg>
