<svg width="9" height="14" viewBox="0 0 9 14" fill="none" xmlns="http://www.w3.org/2000/svg">
<g clip-path="url(#clip0_108_417)">
<path d="M1.3125 1.75C0.587891 1.75 0 2.33789 0 3.0625V10.9375C0 11.6621 0.587891 12.25 1.3125 12.25H2.1875C2.91211 12.25 3.5 11.6621 3.5 10.9375V3.0625C3.5 2.33789 2.91211 1.75 2.1875 1.75H1.3125ZM6.5625 1.75C5.83789 1.75 5.25 2.33789 5.25 3.0625V10.9375C5.25 11.6621 5.83789 12.25 6.5625 12.25H7.4375C8.16211 12.25 8.75 11.6621 8.75 10.9375V3.0625C8.75 2.33789 8.16211 1.75 7.4375 1.75H6.5625Z" fill="#CA8A04"/>
</g>
<defs>
<clipPath id="clip0_108_417">
<path d="M0 0H8.75V14H0V0Z" fill="white"/>
</clipPath>
</defs>
</svg>
