<svg width="21" height="18" viewBox="0 0 21 18" fill="none" xmlns="http://www.w3.org/2000/svg">
<g clip-path="url(#clip0_108_62)">
<path d="M2.25 1.125C1.00898 1.125 0 2.13398 0 3.375V4.5H20.25V3.375C20.25 2.13398 19.241 1.125 18 1.125H2.25ZM20.25 7.875H0V14.625C0 15.866 1.00898 16.875 2.25 16.875H18C19.241 16.875 20.25 15.866 20.25 14.625V7.875ZM3.9375 12.375H6.1875C6.49687 12.375 6.75 12.6281 6.75 12.9375C6.75 13.2469 6.49687 13.5 6.1875 13.5H3.9375C3.62812 13.5 3.375 13.2469 3.375 12.9375C3.375 12.6281 3.62812 12.375 3.9375 12.375ZM7.875 12.9375C7.875 12.6281 8.12813 12.375 8.4375 12.375H12.9375C13.2469 12.375 13.5 12.6281 13.5 12.9375C13.5 13.2469 13.2469 13.5 12.9375 13.5H8.4375C8.12813 13.5 7.875 13.2469 7.875 12.9375Z" fill="#F36523"/>
</g>
<defs>
<clipPath id="clip0_108_62">
<path d="M0 0H20.25V18H0V0Z" fill="white"/>
</clipPath>
</defs>
</svg>
