<svg width="14" height="14" viewBox="0 0 14 14" fill="none" xmlns="http://www.w3.org/2000/svg">
<g clip-path="url(#clip0_133_192)">
<path d="M4.50898 0.67254C4.29844 0.163947 3.74336 -0.106757 3.21289 0.0381654L0.806641 0.694415C0.330859 0.825665 0 1.2577 0 1.74988C0 8.51473 5.48516 13.9999 12.25 13.9999C12.7422 13.9999 13.1742 13.669 13.3055 13.1932L13.9617 10.787C14.1066 10.2565 13.8359 9.70145 13.3273 9.4909L10.7023 8.39715C10.2566 8.21121 9.73984 8.33973 9.43633 8.71434L8.33164 10.0624C6.40664 9.15184 4.84805 7.59324 3.9375 5.66824L5.28555 4.56629C5.66016 4.26004 5.78867 3.74598 5.60273 3.30027L4.50898 0.675275V0.67254Z" fill="#F36523"/>
</g>
<defs>
<clipPath id="clip0_133_192">
<path d="M0 0H14V14H0V0Z" fill="white"/>
</clipPath>
</defs>
</svg>
