<svg width="16" height="14" viewBox="0 0 16 14" fill="none" xmlns="http://www.w3.org/2000/svg">
<g clip-path="url(#clip0_133_238)">
<path d="M1.75 0.875C0.784766 0.875 0 1.65977 0 2.625V3.5H15.75V2.625C15.75 1.65977 14.9652 0.875 14 0.875H1.75ZM15.75 6.125H0V11.375C0 12.3402 0.784766 13.125 1.75 13.125H14C14.9652 13.125 15.75 12.3402 15.75 11.375V6.125ZM3.0625 9.625H4.8125C5.05312 9.625 5.25 9.82187 5.25 10.0625C5.25 10.3031 5.05312 10.5 4.8125 10.5H3.0625C2.82188 10.5 2.625 10.3031 2.625 10.0625C2.625 9.82187 2.82188 9.625 3.0625 9.625ZM6.125 10.0625C6.125 9.82187 6.32188 9.625 6.5625 9.625H10.0625C10.3031 9.625 10.5 9.82187 10.5 10.0625C10.5 10.3031 10.3031 10.5 10.0625 10.5H6.5625C6.32188 10.5 6.125 10.3031 6.125 10.0625Z" fill="white"/>
</g>
<defs>
<clipPath id="clip0_133_238">
<path d="M0 0H15.75V14H0V0Z" fill="white"/>
</clipPath>
</defs>
</svg>
