<svg width="13" height="14" viewBox="0 0 13 14" fill="none" xmlns="http://www.w3.org/2000/svg">
<g clip-path="url(#clip0_133_198)">
<path d="M10.4152 2.65508C9.26953 1.50664 7.74375 0.875 6.12227 0.875C2.77539 0.875 0.0519531 3.59844 0.0519531 6.94531C0.0519531 8.01445 0.330859 9.05898 0.861328 9.98047L0 13.125L3.21836 12.2801C4.1043 12.7641 5.10234 13.0184 6.11953 13.0184H6.12227C9.46641 13.0184 12.25 10.2949 12.25 6.94805C12.25 5.32656 11.5609 3.80352 10.4152 2.65508ZM6.12227 11.9957C5.21445 11.9957 4.32578 11.7523 3.55195 11.293L3.36875 11.1836L1.46016 11.684L1.96875 9.82188L1.84844 9.63047C1.34258 8.82656 1.07734 7.89961 1.07734 6.94531C1.07734 4.16445 3.34141 1.90039 6.125 1.90039C7.47305 1.90039 8.73906 2.42539 9.69063 3.37969C10.6422 4.33398 11.2273 5.6 11.2246 6.94805C11.2246 9.73164 8.90312 11.9957 6.12227 11.9957ZM8.88945 8.2168C8.73906 8.14023 7.99258 7.77383 7.85313 7.72461C7.71367 7.67266 7.6125 7.64805 7.51133 7.80117C7.41016 7.9543 7.12031 8.29336 7.03008 8.39727C6.94258 8.49844 6.85234 8.51211 6.70195 8.43555C5.81055 7.98984 5.22539 7.63984 4.6375 6.63086C4.48164 6.36289 4.79336 6.38203 5.0832 5.80234C5.13242 5.70117 5.10781 5.61367 5.06953 5.53711C5.03125 5.46055 4.72773 4.71406 4.60195 4.41055C4.47891 4.11523 4.35313 4.15625 4.26016 4.15078C4.17266 4.14531 4.07148 4.14531 3.97031 4.14531C3.86914 4.14531 3.70508 4.18359 3.56562 4.33398C3.42617 4.48711 3.03516 4.85352 3.03516 5.6C3.03516 6.34648 3.5793 7.06836 3.65313 7.16953C3.72969 7.2707 4.72227 8.80195 6.24531 9.46094C7.20781 9.87656 7.58516 9.91211 8.06641 9.84102C8.35898 9.79727 8.96328 9.47461 9.08906 9.11914C9.21484 8.76367 9.21484 8.46016 9.17656 8.39727C9.14102 8.32891 9.03984 8.29063 8.88945 8.2168Z" fill="#F36523"/>
</g>
<defs>
<clipPath id="clip0_133_198">
<path d="M0 0H12.25V14H0V0Z" fill="white"/>
</clipPath>
</defs>
</svg>
