<svg width="18" height="18" viewBox="0 0 18 18" fill="none" xmlns="http://www.w3.org/2000/svg">
<g clip-path="url(#clip0_133_212)">
<path d="M12.375 11.25C15.4828 11.25 18 8.73281 18 5.625C18 5.08711 17.9227 4.5668 17.782 4.07109C17.673 3.69141 17.2055 3.60703 16.9277 3.88477L14.2277 6.58477C14.1223 6.69023 13.9781 6.75 13.8305 6.75H11.8125C11.5031 6.75 11.25 6.49687 11.25 6.1875V4.16953C11.25 4.02187 11.3098 3.87773 11.4152 3.77227L14.1152 1.07227C14.393 0.794531 14.3051 0.326953 13.9289 0.217969C13.4332 0.0773437 12.9129 0 12.375 0C9.26719 0 6.75 2.51719 6.75 5.625C6.75 6.29648 6.86953 6.94336 7.08398 7.54102L0.699609 13.9254C0.253125 14.3719 0 14.9801 0 15.6129C0 16.9312 1.06875 18 2.38711 18C3.01992 18 3.62812 17.7469 4.07461 17.3004L10.459 10.916C11.0566 11.134 11.7035 11.25 12.375 11.25ZM2.8125 14.3438C3.03628 14.3438 3.25089 14.4326 3.40912 14.5909C3.56736 14.7491 3.65625 14.9637 3.65625 15.1875C3.65625 15.4113 3.56736 15.6259 3.40912 15.7841C3.25089 15.9424 3.03628 16.0312 2.8125 16.0312C2.58872 16.0312 2.37411 15.9424 2.21588 15.7841C2.05764 15.6259 1.96875 15.4113 1.96875 15.1875C1.96875 14.9637 2.05764 14.7491 2.21588 14.5909C2.37411 14.4326 2.58872 14.3438 2.8125 14.3438Z" fill="white"/>
</g>
<defs>
<clipPath id="clip0_133_212">
<path d="M0 0H18V18H0V0Z" fill="white"/>
</clipPath>
</defs>
</svg>
