<svg width="34" height="34" viewBox="0 0 34 34" fill="none" xmlns="http://www.w3.org/2000/svg">
<g clip-path="url(#clip0_108_193)">
<path fill-rule="evenodd" clip-rule="evenodd" d="M17.3902 12.3844C17.6337 12.1501 17.9603 12.022 18.2982 12.0284C18.6361 12.0348 18.9577 12.175 19.1922 12.4184L25.4992 19.113L31.8062 12.4184C31.9208 12.292 32.0597 12.1899 32.2145 12.1182C32.3693 12.0464 32.537 12.0065 32.7075 12.0007C32.878 11.995 33.048 12.0235 33.2073 12.0846C33.3666 12.1457 33.512 12.2382 33.635 12.3566C33.7579 12.475 33.8558 12.6168 33.9229 12.7737C33.99 12.9306 34.0249 13.0993 34.0256 13.27C34.0262 13.4406 33.9926 13.6096 33.9268 13.767C33.8609 13.9245 33.7642 14.0671 33.6422 14.1864L26.4172 21.8364C26.2983 21.9598 26.1557 22.0579 25.9979 22.125C25.8402 22.192 25.6706 22.2266 25.4992 22.2266C25.3278 22.2266 25.1582 22.192 25.0005 22.125C24.8427 22.0579 24.7001 21.9598 24.5812 21.8364L17.3562 14.1864C17.1219 13.9428 16.9939 13.6162 17.0002 13.2783C17.0066 12.9404 17.1469 12.6189 17.3902 12.3844Z" fill="black"/>
</g>
<defs>
<clipPath id="clip0_108_193">
<rect width="34" height="34" fill="white"/>
</clipPath>
</defs>
</svg>
