<svg width="18" height="14" viewBox="0 0 18 14" fill="none" xmlns="http://www.w3.org/2000/svg">
<g clip-path="url(#clip0_133_2302)">
<path d="M8.84297 2.32969L6.19609 4.47344C5.75586 4.82891 5.67109 5.46875 6.00469 5.92539C6.35742 6.41211 7.04375 6.50781 7.5168 6.13867L10.232 4.02773C10.4234 3.88008 10.6969 3.91289 10.8473 4.1043C10.9977 4.2957 10.9621 4.56914 10.7707 4.71953L10.1992 5.1625L14 8.6625V3.5H13.9809L13.8742 3.43164L11.8891 2.16016C11.4707 1.89219 10.9812 1.75 10.4836 1.75C9.8875 1.75 9.30781 1.95508 8.84297 2.32969ZM9.46641 5.73125L8.05273 6.83047C7.19141 7.50313 5.9418 7.32812 5.29648 6.44219C4.68945 5.6082 4.84258 4.44336 5.64375 3.79531L7.91875 1.95508C7.60156 1.82109 7.25977 1.75273 6.9125 1.75273C6.39844 1.75 5.89805 1.90313 5.46875 2.1875L3.5 3.5V9.625H4.27109L6.77031 11.9055C7.30625 12.3949 8.13477 12.3566 8.62422 11.8207C8.77461 11.6539 8.87578 11.4598 8.92773 11.2574L9.39258 11.684C9.92578 12.1734 10.757 12.1379 11.2465 11.6047C11.3695 11.4707 11.4598 11.3148 11.5172 11.1535C12.0477 11.509 12.7695 11.4352 13.2152 10.9484C13.7047 10.4152 13.6691 9.58398 13.1359 9.09453L9.46641 5.73125ZM0.4375 3.5C0.196875 3.5 0 3.69687 0 3.9375V9.625C0 10.109 0.391016 10.5 0.875 10.5H1.75C2.23398 10.5 2.625 10.109 2.625 9.625V3.5H0.4375ZM1.3125 8.75C1.42853 8.75 1.53981 8.79609 1.62186 8.87814C1.70391 8.96019 1.75 9.07147 1.75 9.1875C1.75 9.30353 1.70391 9.41481 1.62186 9.49686C1.53981 9.57891 1.42853 9.625 1.3125 9.625C1.19647 9.625 1.08519 9.57891 1.00314 9.49686C0.921094 9.41481 0.875 9.30353 0.875 9.1875C0.875 9.07147 0.921094 8.96019 1.00314 8.87814C1.08519 8.79609 1.19647 8.75 1.3125 8.75ZM14.875 3.5V9.625C14.875 10.109 15.266 10.5 15.75 10.5H16.625C17.109 10.5 17.5 10.109 17.5 9.625V3.9375C17.5 3.69687 17.3031 3.5 17.0625 3.5H14.875ZM15.75 9.1875C15.75 9.07147 15.7961 8.96019 15.8781 8.87814C15.9602 8.79609 16.0715 8.75 16.1875 8.75C16.3035 8.75 16.4148 8.79609 16.4969 8.87814C16.5789 8.96019 16.625 9.07147 16.625 9.1875C16.625 9.30353 16.5789 9.41481 16.4969 9.49686C16.4148 9.57891 16.3035 9.625 16.1875 9.625C16.0715 9.625 15.9602 9.57891 15.8781 9.49686C15.7961 9.41481 15.75 9.30353 15.75 9.1875Z" fill="#F36523"/>
</g>
<defs>
<clipPath id="clip0_133_2302">
<path d="M0 0H17.5V14H0V0Z" fill="white"/>
</clipPath>
</defs>
</svg>
