<svg width="15" height="12" viewBox="0 0 15 12" fill="none" xmlns="http://www.w3.org/2000/svg">
<path d="M15 12H0V0H15V12Z" stroke="#E5E7EB"/>
<path d="M7.57969 1.99687L5.31094 3.83437C4.93359 4.13906 4.86094 4.6875 5.14688 5.07891C5.44922 5.49609 6.0375 5.57812 6.44297 5.26172L8.77031 3.45234C8.93438 3.32578 9.16875 3.35391 9.29766 3.51797C9.42656 3.68203 9.39609 3.91641 9.23203 4.04531L8.74219 4.425L12 7.425V3H11.9836L11.8922 2.94141L10.1906 1.85156C9.83203 1.62187 9.4125 1.5 8.98594 1.5C8.475 1.5 7.97812 1.67578 7.57969 1.99687ZM8.11406 4.9125L6.90234 5.85469C6.16406 6.43125 5.09297 6.28125 4.53984 5.52187C4.01953 4.80703 4.15078 3.80859 4.8375 3.25312L6.7875 1.67578C6.51562 1.56094 6.22266 1.50234 5.925 1.50234C5.48438 1.5 5.05547 1.63125 4.6875 1.875L3 3V8.25H3.66094L5.80313 10.2047C6.2625 10.6242 6.97266 10.5914 7.39219 10.132C7.52109 9.98906 7.60781 9.82266 7.65234 9.64922L8.05078 10.0148C8.50781 10.4344 9.22031 10.4039 9.63984 9.94687C9.74531 9.83203 9.82266 9.69844 9.87188 9.56016C10.3266 9.86484 10.9453 9.80156 11.3273 9.38437C11.7469 8.92734 11.7164 8.21484 11.2594 7.79531L8.11406 4.9125ZM0.375 3C0.16875 3 0 3.16875 0 3.375V8.25C0 8.66484 0.335156 9 0.75 9H1.5C1.91484 9 2.25 8.66484 2.25 8.25V3H0.375ZM1.125 7.5C1.22446 7.5 1.31984 7.53951 1.39017 7.60983C1.46049 7.68016 1.5 7.77554 1.5 7.875C1.5 7.97446 1.46049 8.06984 1.39017 8.14016C1.31984 8.21049 1.22446 8.25 1.125 8.25C1.02554 8.25 0.930161 8.21049 0.859835 8.14016C0.789509 8.06984 0.75 7.97446 0.75 7.875C0.75 7.77554 0.789509 7.68016 0.859835 7.60983C0.930161 7.53951 1.02554 7.5 1.125 7.5ZM12.75 3V8.25C12.75 8.66484 13.0852 9 13.5 9H14.25C14.6648 9 15 8.66484 15 8.25V3.375C15 3.16875 14.8313 3 14.625 3H12.75ZM13.5 7.875C13.5 7.77554 13.5395 7.68016 13.6098 7.60983C13.6802 7.53951 13.7755 7.5 13.875 7.5C13.9745 7.5 14.0698 7.53951 14.1402 7.60983C14.2105 7.68016 14.25 7.77554 14.25 7.875C14.25 7.97446 14.2105 8.06984 14.1402 8.14016C14.0698 8.21049 13.9745 8.25 13.875 8.25C13.7755 8.25 13.6802 8.21049 13.6098 8.14016C13.5395 8.06984 13.5 7.97446 13.5 7.875Z" fill="#F36523"/>
</svg>
