<svg width="16" height="14" viewBox="0 0 16 14" fill="none" xmlns="http://www.w3.org/2000/svg">
<g clip-path="url(#clip0_133_2314)">
<path d="M14.9733 2.83828L13.4065 0.358203C13.267 0.136719 13.0182 0 12.7529 0H2.99669C2.73146 0 2.48263 0.136719 2.34318 0.358203L0.773646 2.83828C-0.0357294 4.11797 0.680677 5.89805 2.19279 6.10313C2.30216 6.1168 2.41427 6.125 2.52365 6.125C3.23732 6.125 3.87169 5.81328 4.30646 5.33203C4.74122 5.81328 5.3756 6.125 6.08927 6.125C6.80294 6.125 7.43732 5.81328 7.87208 5.33203C8.30685 5.81328 8.94122 6.125 9.6549 6.125C10.3713 6.125 11.0029 5.81328 11.4377 5.33203C11.8752 5.81328 12.5068 6.125 13.2205 6.125C13.3326 6.125 13.442 6.1168 13.5514 6.10313C15.069 5.90078 15.7881 4.1207 14.976 2.83828H14.9733ZM13.6635 6.96992H13.6608C13.5158 6.98906 13.3682 7 13.2178 7C12.8787 7 12.5533 6.94805 12.2498 6.85508V10.5H3.49982V6.85234C3.19357 6.94805 2.86544 7 2.52638 7C2.37599 7 2.2256 6.98906 2.08068 6.96992H2.07794C1.96583 6.95352 1.85646 6.93438 1.74982 6.90703V10.5V12.25C1.74982 13.2152 2.53458 14 3.49982 14H12.2498C13.2151 14 13.9998 13.2152 13.9998 12.25V10.5V6.90703C13.8904 6.93438 13.7811 6.95625 13.6635 6.96992Z" fill="#F36523"/>
</g>
<defs>
<clipPath id="clip0_133_2314">
<path d="M0 0H15.75V14H0V0Z" fill="white"/>
</clipPath>
</defs>
</svg>
