<svg width="4" height="14" viewBox="0 0 4 14" fill="none" xmlns="http://www.w3.org/2000/svg">
<g clip-path="url(#clip0_133_2160)">
<path d="M1.75 9.84375C1.34389 9.84375 0.954408 10.0051 0.667243 10.2922C0.380078 10.5794 0.21875 10.9689 0.21875 11.375C0.21875 11.7811 0.380078 12.1706 0.667243 12.4578C0.954408 12.7449 1.34389 12.9062 1.75 12.9062C2.15611 12.9062 2.54559 12.7449 2.83276 12.4578C3.11992 12.1706 3.28125 11.7811 3.28125 11.375C3.28125 10.9689 3.11992 10.5794 2.83276 10.2922C2.54559 10.0051 2.15611 9.84375 1.75 9.84375ZM1.75 5.46875C1.34389 5.46875 0.954408 5.63008 0.667243 5.91724C0.380078 6.20441 0.21875 6.59389 0.21875 7C0.21875 7.40611 0.380078 7.79559 0.667243 8.08276C0.954408 8.36992 1.34389 8.53125 1.75 8.53125C2.15611 8.53125 2.54559 8.36992 2.83276 8.08276C3.11992 7.79559 3.28125 7.40611 3.28125 7C3.28125 6.59389 3.11992 6.20441 2.83276 5.91724C2.54559 5.63008 2.15611 5.46875 1.75 5.46875ZM3.28125 2.625C3.28125 2.21889 3.11992 1.82941 2.83276 1.54224C2.54559 1.25508 2.15611 1.09375 1.75 1.09375C1.34389 1.09375 0.954408 1.25508 0.667243 1.54224C0.380078 1.82941 0.21875 2.21889 0.21875 2.625C0.21875 3.03111 0.380078 3.42059 0.667243 3.70776C0.954408 3.99492 1.34389 4.15625 1.75 4.15625C2.15611 4.15625 2.54559 3.99492 2.83276 3.70776C3.11992 3.42059 3.28125 3.03111 3.28125 2.625Z" fill="#0D2027"/>
</g>
<defs>
<clipPath id="clip0_133_2160">
<path d="M0 0H3.5V14H0V0Z" fill="white"/>
</clipPath>
</defs>
</svg>
