<svg width="8" height="12" viewBox="0 0 8 12" fill="none" xmlns="http://www.w3.org/2000/svg">
<g clip-path="url(#clip0_133_2268)">
<path d="M3.75003 0C4.16488 0 4.50003 0.335156 4.50003 0.75V1.58672C4.53753 1.59141 4.57269 1.59609 4.61019 1.60313C4.61957 1.60547 4.6266 1.60547 4.63597 1.60781L5.76097 1.81406C6.16878 1.88906 6.43831 2.28047 6.36331 2.68594C6.28831 3.09141 5.89691 3.36328 5.49144 3.28828L4.37816 3.08438C3.64457 2.97656 2.99769 3.04922 2.543 3.22969C2.08832 3.41016 1.9055 3.65859 1.86332 3.88828C1.81644 4.13906 1.8516 4.27969 1.89144 4.36641C1.93363 4.45781 2.02035 4.56094 2.19144 4.67578C2.57347 4.92656 3.15941 5.09063 3.91878 5.29219L3.98675 5.31094C4.65707 5.48906 5.47738 5.70469 6.08675 6.10312C6.41957 6.32109 6.73363 6.61641 6.92816 7.02891C7.12738 7.44844 7.16956 7.91719 7.07816 8.41641C6.91644 9.30703 6.30238 9.90234 5.54066 10.2141C5.21956 10.3453 4.87035 10.4297 4.50003 10.4719V11.25C4.50003 11.6648 4.16488 12 3.75003 12C3.33519 12 3.00003 11.6648 3.00003 11.25V10.432C2.99066 10.4297 2.97894 10.4297 2.96956 10.4273H2.96488C2.393 10.3383 1.45316 10.0922 0.820346 9.81094C0.443003 9.64219 0.271909 9.19922 0.440659 8.82187C0.609409 8.44453 1.05238 8.27344 1.42972 8.44219C1.91957 8.66016 2.72582 8.87578 3.19222 8.94844C3.93988 9.05859 4.55628 8.99531 4.97347 8.82422C5.36957 8.6625 5.55003 8.42813 5.6016 8.14688C5.64613 7.89844 5.61097 7.75547 5.57113 7.66875C5.5266 7.575 5.43988 7.47187 5.26644 7.35703C4.88207 7.10625 4.29378 6.94219 3.53207 6.74063L3.46644 6.72422C2.79847 6.54609 1.97816 6.32812 1.36878 5.92969C1.03597 5.71172 0.724253 5.41406 0.529721 5.00156C0.332846 4.58203 0.293003 4.11328 0.386753 3.61406C0.555503 2.71875 1.22582 2.1375 1.98753 1.83516C2.29925 1.71094 2.64144 1.62656 3.00003 1.57734V0.75C3.00003 0.335156 3.33519 0 3.75003 0Z" fill="#F36523"/>
</g>
<defs>
<clipPath id="clip0_133_2268">
<path d="M0 0H7.5V12H0V0Z" fill="white"/>
</clipPath>
</defs>
</svg>
