<svg width="13" height="14" viewBox="0 0 13 14" fill="none" xmlns="http://www.w3.org/2000/svg">
<g clip-path="url(#clip0_133_2283)">
<path d="M6.12496 0C5.64098 0 5.24996 0.391016 5.24996 0.875V1.4C3.25387 1.80469 1.74996 3.57109 1.74996 5.6875V6.20156C1.74996 7.48672 1.27692 8.72812 0.423793 9.69063L0.221449 9.91758C-0.00823824 10.1746 -0.0629258 10.5437 0.0765274 10.8582C0.21598 11.1727 0.530434 11.375 0.874965 11.375H11.375C11.7195 11.375 12.0312 11.1727 12.1734 10.8582C12.3156 10.5437 12.2582 10.1746 12.0285 9.91758L11.8261 9.69063C10.973 8.72812 10.5 7.48945 10.5 6.20156V5.6875C10.5 3.57109 8.99606 1.80469 6.99996 1.4V0.875C6.99996 0.391016 6.60895 0 6.12496 0ZM7.36364 13.4887C7.69176 13.1605 7.87497 12.7148 7.87497 12.25H6.12496H4.37496C4.37496 12.7148 4.55817 13.1605 4.88629 13.4887C5.21442 13.8168 5.66012 14 6.12496 14C6.58981 14 7.03551 13.8168 7.36364 13.4887Z" fill="#0D2027"/>
</g>
<defs>
<clipPath id="clip0_133_2283">
<path d="M0 0H12.25V14H0V0Z" fill="white"/>
</clipPath>
</defs>
</svg>
