<svg width="14" height="14" viewBox="0 0 14 14" fill="none" xmlns="http://www.w3.org/2000/svg">
<g clip-path="url(#clip0_133_2295)">
<path d="M4.2793 12.2418L3.93477 13.0484C3.42344 12.7887 2.95312 12.4688 2.52656 12.0941L3.14727 11.4734C3.48906 11.7715 3.86914 12.0312 4.2793 12.2418ZM1.11016 7.4375H0.232422C0.270703 8.01719 0.380078 8.57773 0.552344 9.1082L1.36719 8.78281C1.2332 8.35352 1.14297 7.90234 1.11016 7.4375ZM1.11016 6.5625C1.14844 6.04844 1.25234 5.55078 1.41367 5.0832L0.607031 4.73867C0.401953 5.31289 0.273438 5.92539 0.232422 6.5625H1.11016ZM1.7582 4.2793C1.97148 3.87188 2.22852 3.4918 2.52656 3.14453L1.90586 2.52383C1.53125 2.95039 1.20859 3.4207 0.951562 3.93203L1.7582 4.2793ZM10.8555 11.4734C10.4754 11.8016 10.0516 12.0832 9.59492 12.3047L9.92031 13.1195C10.4863 12.8488 11.0086 12.5016 11.4762 12.0914L10.8555 11.4734ZM3.14453 2.52656C3.52461 2.19844 3.94844 1.9168 4.40508 1.69531L4.07969 0.880469C3.51367 1.15117 2.99141 1.49844 2.52656 1.90859L3.14453 2.52656ZM12.2418 9.7207C12.0285 10.1281 11.7715 10.5082 11.4734 10.8555L12.0941 11.4762C12.4688 11.0496 12.7914 10.5766 13.0484 10.068L12.2418 9.7207ZM12.8898 7.4375C12.8516 7.95156 12.7477 8.44922 12.5863 8.9168L13.393 9.26133C13.598 8.68438 13.7266 8.07187 13.7648 7.43477H12.8898V7.4375ZM8.78281 12.6328C8.35352 12.7695 7.90234 12.857 7.4375 12.8898V13.7676C8.01719 13.7293 8.57773 13.6199 9.1082 13.4477L8.78281 12.6328ZM6.5625 12.8898C6.04844 12.8516 5.55078 12.7477 5.0832 12.5863L4.73867 13.393C5.31563 13.598 5.92813 13.7266 6.56523 13.7648V12.8898H6.5625ZM12.6328 5.21719C12.7695 5.64648 12.857 6.09766 12.8898 6.5625H13.7676C13.7293 5.98281 13.6199 5.42227 13.4477 4.8918L12.6328 5.21719ZM2.52656 10.8555C2.19844 10.4754 1.9168 10.0516 1.69531 9.59492L0.880469 9.92031C1.15117 10.4863 1.49844 11.0086 1.90859 11.4762L2.52656 10.8555ZM7.4375 1.11016C7.95156 1.14844 8.44648 1.25234 8.9168 1.41367L9.26133 0.607031C8.68711 0.401953 8.07461 0.273438 7.4375 0.232422V1.11016ZM5.21719 1.36719C5.64648 1.23047 6.09766 1.14297 6.5625 1.11016V0.232422C5.98281 0.270703 5.42227 0.380078 4.8918 0.552344L5.21719 1.36719ZM12.0941 2.52383L11.4734 3.14453C11.8016 3.52461 12.0832 3.94844 12.3074 4.40508L13.1223 4.07969C12.8516 3.51367 12.5043 2.99141 12.0941 2.52383ZM10.8555 2.52656L11.4762 1.90586C11.0496 1.53125 10.5793 1.20859 10.068 0.951562L9.72344 1.7582C10.1281 1.97148 10.5109 2.22852 10.8555 2.52656Z" fill="#F36523"/>
<path d="M7 10.7188C7.42284 10.7188 7.76562 10.376 7.76562 9.95312C7.76562 9.53028 7.42284 9.1875 7 9.1875C6.57716 9.1875 6.23438 9.53028 6.23438 9.95312C6.23438 10.376 6.57716 10.7188 7 10.7188Z" fill="#F36523"/>
<path d="M7.21079 8.53125H6.77329C6.59282 8.53125 6.44516 8.38359 6.44516 8.20312C6.44516 6.26172 8.56157 6.45586 8.56157 5.25547C8.56157 4.70859 8.07485 4.15625 6.99204 4.15625C6.19634 4.15625 5.78071 4.41875 5.37329 4.94102C5.26665 5.07773 5.06977 5.10508 4.93032 5.00664L4.57212 4.75508C4.41899 4.64844 4.38345 4.43242 4.50102 4.28477C5.08071 3.54102 5.76977 3.0625 6.99477 3.0625C8.42485 3.0625 9.65806 3.87734 9.65806 5.25547C9.65806 7.10391 7.54165 6.9918 7.54165 8.20312C7.53891 8.38359 7.39126 8.53125 7.21079 8.53125Z" fill="#F36523"/>
</g>
<defs>
<clipPath id="clip0_133_2295">
<path d="M0 0H14V14H0V0Z" fill="white"/>
</clipPath>
</defs>
</svg>
