<svg width="14" height="18" viewBox="0 0 14 18" fill="none" xmlns="http://www.w3.org/2000/svg">
<g clip-path="url(#clip0_133_2143)">
<path d="M6.75 0C5.28047 0 4.02891 0.938672 3.56836 2.25H2.25C1.00898 2.25 0 3.25898 0 4.5V15.75C0 16.991 1.00898 18 2.25 18H11.25C12.491 18 13.5 16.991 13.5 15.75V4.5C13.5 3.25898 12.491 2.25 11.25 2.25H9.93164C9.47109 0.938672 8.21953 0 6.75 0ZM6.75 2.25C7.04837 2.25 7.33452 2.36853 7.5455 2.5795C7.75647 2.79048 7.875 3.07663 7.875 3.375C7.875 3.67337 7.75647 3.95952 7.5455 4.1705C7.33452 4.38147 7.04837 4.5 6.75 4.5C6.45163 4.5 6.16548 4.38147 5.9545 4.1705C5.74353 3.95952 5.625 3.67337 5.625 3.375C5.625 3.07663 5.74353 2.79048 5.9545 2.5795C6.16548 2.36853 6.45163 2.25 6.75 2.25ZM2.53125 9.5625C2.53125 9.33872 2.62014 9.12411 2.77838 8.96588C2.93661 8.80764 3.15122 8.71875 3.375 8.71875C3.59878 8.71875 3.81339 8.80764 3.97162 8.96588C4.12986 9.12411 4.21875 9.33872 4.21875 9.5625C4.21875 9.78628 4.12986 10.0009 3.97162 10.1591C3.81339 10.3174 3.59878 10.4062 3.375 10.4062C3.15122 10.4062 2.93661 10.3174 2.77838 10.1591C2.62014 10.0009 2.53125 9.78628 2.53125 9.5625ZM6.1875 9H10.6875C10.9969 9 11.25 9.25313 11.25 9.5625C11.25 9.87187 10.9969 10.125 10.6875 10.125H6.1875C5.87813 10.125 5.625 9.87187 5.625 9.5625C5.625 9.25313 5.87813 9 6.1875 9ZM2.53125 12.9375C2.53125 12.7137 2.62014 12.4991 2.77838 12.3409C2.93661 12.1826 3.15122 12.0938 3.375 12.0938C3.59878 12.0938 3.81339 12.1826 3.97162 12.3409C4.12986 12.4991 4.21875 12.7137 4.21875 12.9375C4.21875 13.1613 4.12986 13.3759 3.97162 13.5341C3.81339 13.6924 3.59878 13.7812 3.375 13.7812C3.15122 13.7812 2.93661 13.6924 2.77838 13.5341C2.62014 13.3759 2.53125 13.1613 2.53125 12.9375ZM5.625 12.9375C5.625 12.6281 5.87813 12.375 6.1875 12.375H10.6875C10.9969 12.375 11.25 12.6281 11.25 12.9375C11.25 13.2469 10.9969 13.5 10.6875 13.5H6.1875C5.87813 13.5 5.625 13.2469 5.625 12.9375Z" fill="#9CA3AF"/>
</g>
<defs>
<clipPath id="clip0_133_2143">
<path d="M0 0H13.5V18H0V0Z" fill="white"/>
</clipPath>
</defs>
</svg>
