<svg width="9" height="12" viewBox="0 0 9 12" fill="none" xmlns="http://www.w3.org/2000/svg">
<g clip-path="url(#clip0_133_2271)">
<path d="M8.77949 2.77974C9.07246 2.48677 9.07246 2.01099 8.77949 1.71802C8.48652 1.42505 8.01074 1.42505 7.71777 1.71802L0.217773 9.21802C-0.0751953 9.51099 -0.0751953 9.98677 0.217773 10.2797C0.510742 10.5727 0.986524 10.5727 1.27949 10.2797L8.77949 2.77974ZM2.9998 3.00005C2.9998 2.60222 2.84177 2.22069 2.56047 1.93939C2.27916 1.65808 1.89763 1.50005 1.4998 1.50005C1.10198 1.50005 0.720449 1.65808 0.439145 1.93939C0.15784 2.22069 -0.000195317 2.60222 -0.000195317 3.00005C-0.000195317 3.39787 0.15784 3.7794 0.439145 4.06071C0.720449 4.34201 1.10198 4.50005 1.4998 4.50005C1.89763 4.50005 2.27916 4.34201 2.56047 4.06071C2.84177 3.7794 2.9998 3.39787 2.9998 3.00005ZM8.99981 9.00005C8.99981 8.60222 8.84177 8.22069 8.56047 7.93939C8.27916 7.65809 7.89763 7.50005 7.49981 7.50005C7.10198 7.50005 6.72045 7.65809 6.43915 7.93939C6.15784 8.22069 5.99981 8.60222 5.99981 9.00005C5.99981 9.39787 6.15784 9.7794 6.43915 10.0607C6.72045 10.342 7.10198 10.5 7.49981 10.5C7.89763 10.5 8.27916 10.342 8.56047 10.0607C8.84177 9.7794 8.99981 9.39787 8.99981 9.00005Z" fill="#F36523"/>
</g>
<defs>
<clipPath id="clip0_133_2271">
<path d="M0 0H9V12H0V0Z" fill="white"/>
</clipPath>
</defs>
</svg>
