<svg width="14" height="14" viewBox="0 0 14 14" fill="none" xmlns="http://www.w3.org/2000/svg">
<g clip-path="url(#clip0_133_2308)">
<path d="M7 1.3125C3.8582 1.3125 1.3125 3.8582 1.3125 7V8.09375C1.3125 8.45742 1.01992 8.75 0.65625 8.75C0.292578 8.75 0 8.45742 0 8.09375V7C0 3.13359 3.13359 0 7 0C10.8664 0 14 3.13359 14 7V10.9402C14 12.2691 12.9227 13.3465 11.591 13.3465L8.575 13.3438C8.34805 13.7348 7.92422 14 7.4375 14H6.5625C5.83789 14 5.25 13.4121 5.25 12.6875C5.25 11.9629 5.83789 11.375 6.5625 11.375H7.4375C7.92422 11.375 8.34805 11.6402 8.575 12.0312L11.5938 12.034C12.198 12.034 12.6875 11.5445 12.6875 10.9402V7C12.6875 3.8582 10.1418 1.3125 7 1.3125ZM3.9375 5.6875H4.375C4.85898 5.6875 5.25 6.07852 5.25 6.5625V9.625C5.25 10.109 4.85898 10.5 4.375 10.5H3.9375C2.97227 10.5 2.1875 9.71523 2.1875 8.75V7.4375C2.1875 6.47227 2.97227 5.6875 3.9375 5.6875ZM10.0625 5.6875C11.0277 5.6875 11.8125 6.47227 11.8125 7.4375V8.75C11.8125 9.71523 11.0277 10.5 10.0625 10.5H9.625C9.14102 10.5 8.75 10.109 8.75 9.625V6.5625C8.75 6.07852 9.14102 5.6875 9.625 5.6875H10.0625Z" fill="#0D2027"/>
</g>
<defs>
<clipPath id="clip0_133_2308">
<path d="M0 0H14V14H0V0Z" fill="white"/>
</clipPath>
</defs>
</svg>
