<svg width="13" height="14" viewBox="0 0 13 14" fill="none" xmlns="http://www.w3.org/2000/svg">
<g clip-path="url(#clip0_133_2157)">
<path d="M0.256836 6.38201C-0.0849609 6.7238 -0.0849609 7.27888 0.256836 7.62068L4.63184 11.9957C4.97363 12.3375 5.52871 12.3375 5.87051 11.9957C6.2123 11.6539 6.2123 11.0988 5.87051 10.757L2.98574 7.87498H11.3748C11.8588 7.87498 12.2498 7.48396 12.2498 6.99998C12.2498 6.51599 11.8588 6.12498 11.3748 6.12498H2.98848L5.86777 3.24294C6.20957 2.90115 6.20957 2.34607 5.86777 2.00427C5.52598 1.66248 4.9709 1.66248 4.6291 2.00427L0.254102 6.37927L0.256836 6.38201Z" fill="#0D2027"/>
</g>
<defs>
<clipPath id="clip0_133_2157">
<path d="M0 0H12.25V14H0V0Z" fill="white"/>
</clipPath>
</defs>
</svg>
