<svg width="14" height="14" viewBox="0 0 14 14" fill="none" xmlns="http://www.w3.org/2000/svg">
<g clip-path="url(#clip0_133_2305)">
<path d="M7 14C8.85652 14 10.637 13.2625 11.9497 11.9497C13.2625 10.637 14 8.85652 14 7C14 5.14348 13.2625 3.36301 11.9497 2.05025C10.637 0.737498 8.85652 0 7 0C5.14348 0 3.36301 0.737498 2.05025 2.05025C0.737498 3.36301 0 5.14348 0 7C0 8.85652 0.737498 10.637 2.05025 11.9497C3.36301 13.2625 5.14348 14 7 14ZM4.64297 4.51992C4.85898 3.91016 5.43867 3.5 6.08672 3.5H7.68086C8.63516 3.5 9.40625 4.27383 9.40625 5.22539C9.40625 5.84336 9.07539 6.41484 8.53945 6.72383L7.65625 7.22969C7.65078 7.58516 7.3582 7.875 7 7.875C6.63633 7.875 6.34375 7.58242 6.34375 7.21875V6.84961C6.34375 6.61445 6.46953 6.39844 6.67461 6.28086L7.88594 5.58633C8.01445 5.5125 8.09375 5.37578 8.09375 5.22813C8.09375 4.99844 7.90781 4.81523 7.68086 4.81523H6.08672C5.99375 4.81523 5.91172 4.87266 5.88164 4.96016L5.8707 4.99297C5.75039 5.33477 5.37305 5.5125 5.03398 5.39219C4.69492 5.27187 4.51445 4.89453 4.63477 4.55547L4.6457 4.52266L4.64297 4.51992ZM6.125 9.625C6.125 9.39294 6.21719 9.17038 6.38128 9.00628C6.54538 8.84219 6.76794 8.75 7 8.75C7.23206 8.75 7.45462 8.84219 7.61872 9.00628C7.78281 9.17038 7.875 9.39294 7.875 9.625C7.875 9.85706 7.78281 10.0796 7.61872 10.2437C7.45462 10.4078 7.23206 10.5 7 10.5C6.76794 10.5 6.54538 10.4078 6.38128 10.2437C6.21719 10.0796 6.125 9.85706 6.125 9.625Z" fill="#0D2027"/>
</g>
<defs>
<clipPath id="clip0_133_2305">
<path d="M0 0H14V14H0V0Z" fill="white"/>
</clipPath>
</defs>
</svg>
